<svg width="73" height="95" viewBox="0 0 73 95" fill="none" xmlns="http://www.w3.org/2000/svg">
<mask id="mask0" mask-type="alpha" maskUnits="userSpaceOnUse" x="2" y="21" width="69" height="72">
<path d="M3.50962 43.8013L30.2716 31.0699L35.8569 40.3788L39.002 45.6205C39.3123 46.1378 39.4003 46.7586 39.246 47.3417L37.5754 53.6529C37.2483 54.8885 38.0227 56.1462 39.2733 56.4105L49.2618 58.5207L54.7261 59.6751C55.8895 59.9209 56.6565 61.0349 56.4711 62.2095L56.317 63.1856L55.1907 70.3188C55.1482 70.5879 55.1553 70.8625 55.2116 71.1291L58.8141 88.1812C59.0841 89.4589 58.2052 90.6948 56.9097 90.8593L43.909 92.5102C42.6963 92.6642 41.585 91.815 41.4151 90.6044L39.7189 78.5187C39.5815 77.5403 38.8179 76.7683 37.8411 76.6203L31.9293 75.7246C30.9471 75.5758 29.9846 76.0934 29.5672 76.9949L24.271 88.4347C23.7363 89.5896 22.3463 90.0652 21.2162 89.48L9.59407 83.4614C8.51444 82.9023 8.08008 81.5825 8.61664 80.4915L15.9518 65.5766C16.0032 65.4722 16.0463 65.364 16.0808 65.2529L17.066 62.0783C17.6376 60.2363 15.7635 58.5841 14.0077 59.3822L11.3402 60.5947C10.2248 61.1017 8.90926 60.6159 8.39115 59.5056L2.44486 46.7636C1.9258 45.6513 2.40124 44.3286 3.50962 43.8013Z" fill="#C4C4C4"/>
</mask>
<g mask="url(#mask0)">
<path d="M3.9679 71.5637L32.5659 87.9372L24.2404 102.479L-4.35762 86.105L3.9679 71.5637Z" fill="#EF767A"/>
<path d="M9.75366 62.6941L38.3517 79.0676L32.3461 89.5568L3.74815 73.1833L9.75366 62.6941Z" fill="#EEB868"/>
<path d="M15.9648 54.8076L59.9845 61.7796L58.0937 73.7176L14.0741 66.7456L15.9648 54.8076Z" fill="#49BEAA"/>
<path d="M17.6404 47.5467L61.66 54.5187L59.7692 66.4567L15.7496 59.4846L17.6404 47.5467Z" fill="#456990"/>
<path d="M35.8527 85.8079L68.1724 79.3758L70.8886 93.0243L38.5689 99.4563L35.8527 85.8079Z" fill="#EF767A"/>
<path d="M33.6228 76.3201L65.9425 69.888L68.2336 81.4002L35.9139 87.8323L33.6228 76.3201Z" fill="#EEB868"/>
<path d="M12.0455 65.1717L62.3984 73.1468L61.1514 81.02L10.7985 73.0449L12.0455 65.1717Z" fill="#B39BC8"/>
<path d="M21.0228 37.0399L29.1938 53.7928L9.95725 63.1751L1.78631 46.4222L21.0228 37.0399Z" fill="#EF767A"/>
<path d="M28.7369 33.2774L36.9079 50.0303L17.6714 59.4126L9.50042 42.6597L28.7369 33.2774Z" fill="#EEB868"/>
<path d="M37.2711 29.115L45.4421 45.8679L26.2055 55.2502L18.0346 38.4973L37.2711 29.115Z" fill="#B39BC8"/>
</g>
<path d="M24.9655 44.1954C24.9655 45.7378 23.7152 46.9881 22.1728 46.9881C20.6304 46.9881 19.3801 45.7378 19.3801 44.1954C19.3801 42.6531 20.6304 41.4028 22.1728 41.4028C23.7152 41.4028 24.9655 42.6531 24.9655 44.1954Z" fill="#333333"/>
<path fill-rule="evenodd" clip-rule="evenodd" d="M71.3906 -33.9101C72.5752 -33.5648 73.2555 -32.3245 72.9101 -31.14L47.5991 55.6797L55.283 57.4667C56.8547 57.8322 58.0481 58.9911 58.5196 60.4332L70.3007 57.9284C71.5076 57.6718 72.694 58.4422 72.9506 59.6491C73.2072 60.856 72.4368 62.0424 71.2299 62.299L58.2841 65.0515L57.3974 70.6672L60.9999 87.7194C61.5398 90.2749 59.7822 92.7466 57.191 93.0757L44.1903 94.7266C41.7649 95.0345 39.5424 93.3361 39.2025 90.9149L37.5063 78.8292L31.5945 77.9335L26.2983 89.3733C25.229 91.6831 22.449 92.6344 20.1888 91.4639L8.5666 85.4453C6.40735 84.3271 5.53863 81.6875 6.61175 79.5055L13.9469 64.5906L14.9321 61.4161L12.2646 62.6286C10.0339 63.6426 7.40274 62.6709 6.36653 60.4504L0.420229 47.7084C-0.617884 45.4838 0.332998 42.8384 2.54977 41.7838L29.0475 29.1781L34.4099 24.6201C35.3501 23.8209 36.76 23.9353 37.5591 24.8754C38.3583 25.8155 38.2439 27.2255 37.3038 28.0246L33.1621 31.5451L36.5671 37.2202L41.8785 33.6792C42.9052 32.9948 44.2923 33.2722 44.9767 34.2989C45.6612 35.3255 45.3837 36.7126 44.3571 37.3971L38.8686 41.056L40.9177 44.4711C41.5384 45.5056 41.7144 46.7471 41.4056 47.9134L39.7543 54.1517L43.2103 54.7688L68.6204 -32.3906C68.9658 -33.5751 70.206 -34.2555 71.3906 -33.9101ZM44.3438 59.5102L38.9689 58.5504C36.3973 58.0912 34.7664 55.5335 35.4348 53.0083L37.0861 46.77L29.3994 33.9588L4.46931 45.8188L10.4156 58.5608L13.0831 57.3483C16.5948 55.7521 20.3429 59.0565 19.1996 62.7405L18.2144 65.915C18.1455 66.1373 18.0592 66.3538 17.9565 66.5626L10.6214 81.4774L22.2435 87.4961L27.5397 76.0563C28.3744 74.2533 30.2995 73.218 32.2639 73.5156L38.1757 74.4114C40.1293 74.7074 41.6566 76.2514 41.9312 78.2082L43.6275 90.2939L56.6282 88.643L53.0256 71.5909C52.913 71.0578 52.8988 70.5086 52.9838 69.9704L54.2709 61.8188L44.3438 59.5102Z" fill="#333333"/>
</svg>
