<svg width="640" height="512" viewBox="0 0 640 512" fill="none" xmlns="http://www.w3.org/2000/svg">
<g clip-path="url(#clip0)">
<path d="M378.84 156.05L463.05 121.12L508.65 197.12C515.147 208.449 517.062 221.834 514 234.53C505 273.77 458 293.53 423.57 272.25C412.419 265.474 404.274 254.697 400.8 242.12L378.84 156.05ZM126.16 234.53C135.16 273.77 182.16 293.53 216.58 272.25C227.737 265.479 235.886 254.7 239.36 242.12L261.36 156.12L177.13 121.18L131.56 197.18C125.065 208.487 123.134 221.847 126.16 234.53V234.53Z" fill="white" fill-opacity="0.25"/>
<path d="M639.39 433.59C637.392 428.735 634.455 424.323 630.746 420.607C627.038 416.892 622.631 413.945 617.78 411.938C612.93 409.931 607.73 408.902 602.48 408.911C597.23 408.92 592.034 409.966 587.19 411.99L565.1 421.19L526.4 319.31C574.29 284.31 591.19 219.02 560.9 166.53L474.3 16.05C470.406 9.32813 464.206 4.2465 456.851 1.74748C449.495 -0.751541 441.483 -0.498385 434.3 2.46L320 49.85L205.71 2.46C201.83 0.835684 197.666 -0.000546007 193.46 2.67471e-07C187.833 0.00360612 182.305 1.4888 177.434 4.30624C172.563 7.12368 168.519 11.174 165.71 16.05L79.12 166.53C48.92 219.02 65.72 284.31 113.62 319.21L74.92 421.09L52.82 411.89C47.976 409.866 42.7797 408.82 37.53 408.811C32.2802 408.802 27.0805 409.831 22.2296 411.838C17.3787 413.845 12.9724 416.792 9.26389 420.507C5.55537 424.223 2.61779 428.635 0.620007 433.49C0.208216 434.462 -0.00715781 435.506 -0.0137013 436.561C-0.0202447 437.617 0.182171 438.663 0.581882 439.64C0.981592 440.617 1.57069 441.505 2.31524 442.254C3.05978 443.002 3.94504 443.595 4.92001 444L167.21 511.39C168.193 511.798 169.246 512.008 170.31 512.01C171.878 512.009 173.411 511.541 174.711 510.664C176.012 509.788 177.021 508.543 177.61 507.09C181.662 497.287 181.662 486.278 177.612 476.475C173.561 466.672 165.789 458.874 156 454.79L133.91 445.59L173.31 342C177.71 342.5 182.11 343.3 186.41 343.3C238.11 343.3 285.81 310.21 299.81 258.02L320 182.63L340.21 258C354.21 310.19 401.9 343.28 453.6 343.28C457.9 343.28 462.3 342.48 466.7 341.98L506 445.59L483.9 454.79C479.048 456.805 474.64 459.755 470.929 463.474C467.217 467.192 464.274 471.605 462.268 476.461C460.263 481.316 459.233 486.52 459.238 491.773C459.244 497.027 460.284 502.228 462.3 507.08C462.906 508.532 463.926 509.773 465.233 510.648C466.541 511.523 468.077 511.993 469.65 512C470.698 512 471.735 511.789 472.7 511.38L635.09 444C637.034 443.182 638.577 441.63 639.382 439.68C640.188 437.73 640.19 435.542 639.39 433.59ZM239.39 242.12C235.916 254.7 227.767 265.479 216.61 272.25C182.21 293.54 135.22 273.77 126.19 234.53C123.15 221.84 125.074 208.468 131.57 197.15L206.57 72.15L275.52 100.91L239.39 242.12ZM514 234.53C505 273.77 458 293.53 423.57 272.25C412.419 265.474 404.274 254.697 400.8 242.12L364.76 100.94L433.7 72.18L508.65 197.18C515.132 208.492 517.046 221.853 514 234.53V234.53Z" fill="white" fill-opacity="0.75"/>
</g>
<defs>
<clipPath id="clip0">
<rect width="640" height="512" fill="white"/>
</clipPath>
</defs>
</svg>
