<svg width="576" height="512" viewBox="0 0 576 512" fill="none" xmlns="http://www.w3.org/2000/svg">
<g clip-path="url(#clip0)">
<path d="M290.59 49.94C279.06 48.6 268.37 56.39 264.88 67.46L231.42 173.88C230.78 175.904 229.361 177.59 227.478 178.568C225.594 179.546 223.399 179.735 221.375 179.095C219.351 178.455 217.665 177.036 216.687 175.153C215.709 173.269 215.52 171.074 216.16 169.05L259.53 31.26C260.604 27.8694 260.911 24.2824 260.428 20.7587C259.946 17.2349 258.686 13.8625 256.741 10.8852C254.795 7.90793 252.212 5.4003 249.178 3.54369C246.145 1.68708 242.736 0.5279 239.2 0.15C227.67 -1.19 217 6.6 213.49 17.66L165.56 169.37C164.921 171.394 163.504 173.08 161.621 174.059C159.738 175.038 157.544 175.229 155.52 174.59C153.496 173.951 151.81 172.534 150.831 170.651C149.852 168.768 149.661 166.574 150.3 164.55L188.86 42.55C189.934 39.1593 190.241 35.5724 189.758 32.0487C189.276 28.5249 188.016 25.1525 186.07 22.1752C184.125 19.1979 181.542 16.6903 178.508 14.8337C175.475 12.9771 172.066 11.8179 168.53 11.44C157 10 146.32 17.83 142.82 28.9L82.82 218.75L80.76 168.7C80.7798 165.547 80.1782 162.422 78.9897 159.502C77.8012 156.582 76.049 153.925 73.8332 151.682C71.6175 149.439 68.9816 147.655 66.0761 146.431C63.1707 145.208 60.0526 144.568 56.9 144.55C43.67 144.5 32.18 155.09 32 168.41V281.14C32.315 302.505 38.1594 323.424 48.9636 341.859C59.7679 360.294 75.1634 375.615 93.65 386.33C94.45 386.14 95.19 385.79 96 385.62V359.93C96.0262 327.139 106.384 295.19 125.603 268.622C144.822 242.054 171.925 222.217 203.06 211.93L276.76 189.17L310.92 81.05C311.994 77.6594 312.301 74.0724 311.818 70.5487C311.336 67.0249 310.076 63.6525 308.13 60.6752C306.185 57.6979 303.602 55.1903 300.568 53.3337C297.535 51.4771 294.126 50.3179 290.59 49.94V49.94ZM342 99.74C330.47 98.39 319.79 106.18 316.29 117.25L295.39 183.42L311.5 178.42C316.851 176.805 322.411 175.99 328 176C334.488 176.054 340.917 177.235 347 179.49L362.35 130.88C363.429 127.486 363.74 123.894 363.259 120.366C362.778 116.837 361.517 113.459 359.569 110.478C357.621 107.497 355.033 104.986 351.995 103.129C348.956 101.272 345.542 100.114 342 99.74V99.74ZM112 416C102.506 416 93.2262 418.815 85.3326 424.089C77.4391 429.364 71.2868 436.86 67.6538 445.631C64.0208 454.402 63.0702 464.053 64.9223 473.364C66.7744 482.675 71.346 491.228 78.0589 497.941C84.7718 504.654 93.3246 509.226 102.636 511.078C111.947 512.93 121.598 511.979 130.369 508.346C139.14 504.713 146.636 498.561 151.911 490.667C157.185 482.774 160 473.494 160 464C160 451.27 154.943 439.061 145.941 430.059C136.939 421.057 124.73 416 112 416ZM416 0C409.671 0 403.484 1.87677 398.222 5.39297C392.959 8.90918 388.858 13.9069 386.436 19.7541C384.014 25.6014 383.38 32.0355 384.615 38.2429C385.85 44.4503 388.897 50.1521 393.373 54.6274C397.848 59.1027 403.55 62.1504 409.757 63.3851C415.965 64.6199 422.399 63.9861 428.246 61.5641C434.093 59.1421 439.091 55.0406 442.607 49.7782C446.123 44.5159 448 38.329 448 32C448 23.5131 444.629 15.3737 438.627 9.37258C432.626 3.37142 424.487 0 416 0V0ZM496 128C486.506 128 477.226 130.815 469.333 136.089C461.439 141.364 455.287 148.86 451.654 157.631C448.021 166.402 447.07 176.053 448.922 185.364C450.774 194.675 455.346 203.228 462.059 209.941C468.772 216.654 477.325 221.226 486.636 223.078C495.947 224.93 505.598 223.979 514.369 220.346C523.14 216.713 530.636 210.561 535.911 202.667C541.185 194.774 544 185.494 544 176C544 163.27 538.943 151.061 529.941 142.059C520.939 133.057 508.73 128 496 128V128Z" fill="white" fill-opacity="0.25"/>
<path d="M519.1 336H360C357.878 336 355.843 335.157 354.343 333.657C352.843 332.157 352 330.122 352 328C352 325.878 352.843 323.843 354.343 322.343C355.843 320.843 357.878 320 360 320H488C491.557 320.002 495.07 319.214 498.285 317.693C501.5 316.171 504.336 313.954 506.589 311.201C508.842 308.449 510.455 305.23 511.311 301.778C512.167 298.326 512.245 294.726 511.54 291.24C509.35 279.84 498.71 272 487.1 272H288L335.09 254.94C338.103 254.009 340.902 252.494 343.329 250.481C345.756 248.468 347.763 245.996 349.234 243.208C350.706 240.419 351.614 237.368 351.907 234.228C352.2 231.089 351.871 227.923 350.94 224.91C350.009 221.897 348.494 219.098 346.481 216.671C344.468 214.244 341.996 212.237 339.208 210.766C336.419 209.294 333.368 208.386 330.228 208.093C327.089 207.8 323.923 208.129 320.91 209.06L213.19 242.31C188.406 250.458 166.828 266.222 151.531 287.355C136.233 308.488 127.999 333.911 128 360V385.65C139.539 387.974 150.42 392.822 159.864 399.848C169.308 406.873 177.081 415.9 182.624 426.284C188.168 436.667 191.346 448.148 191.929 459.904C192.513 471.659 190.488 483.399 186 494.28C204.64 505.785 226.096 511.917 248 512H456C459.557 512.002 463.07 511.214 466.285 509.693C469.5 508.171 472.336 505.954 474.589 503.201C476.842 500.449 478.455 497.23 479.311 493.778C480.167 490.326 480.245 486.726 479.54 483.24C477.35 471.84 466.71 464 455.1 464H360C357.878 464 355.843 463.157 354.343 461.657C352.843 460.157 352 458.122 352 456C352 453.878 352.843 451.843 354.343 450.343C355.843 448.843 357.878 448 360 448H488C491.557 448.002 495.07 447.214 498.285 445.693C501.5 444.171 504.336 441.954 506.589 439.201C508.842 436.449 510.455 433.23 511.311 429.778C512.167 426.326 512.245 422.726 511.54 419.24C509.35 407.84 498.71 400 487.1 400H360C357.878 400 355.843 399.157 354.343 397.657C352.843 396.157 352 394.122 352 392C352 389.878 352.843 387.843 354.343 386.343C355.843 384.843 357.878 384 360 384H520C523.557 384.002 527.07 383.214 530.285 381.693C533.5 380.171 536.336 377.954 538.589 375.201C540.842 372.449 542.455 369.23 543.311 365.778C544.167 362.326 544.245 358.726 543.54 355.24C541.35 343.84 530.71 336 519.1 336Z" fill="white" fill-opacity="0.75"/>
</g>
<defs>
<clipPath id="clip0">
<rect width="576" height="512" fill="white"/>
</clipPath>
</defs>
</svg>
