<svg width="512" height="512" viewBox="0 0 512 512" fill="none" xmlns="http://www.w3.org/2000/svg">
<g clip-path="url(#clip0)">
<path d="M221.78 120.28L103 239C99.9736 242.026 97.8112 245.806 96.7369 249.948C95.6626 254.09 95.7155 258.445 96.8901 262.56L149.9 448H199.82L147 263L255.72 154.22L221.78 120.28ZM458.33 187.71L379.71 266.33C390.358 275.579 404.117 280.447 418.212 279.952C432.307 279.457 445.69 273.636 455.663 263.663C465.636 253.69 471.457 240.307 471.952 226.212C472.447 212.116 467.579 198.358 458.33 187.71V187.71Z" fill="white" fill-opacity="0.25"/>
<path d="M320 448H64C35.58 448 9.05005 466.53 0.700048 492.16C-2.51995 502 5.88005 512 16.26 512H367.74C378.13 512 386.52 502 383.31 492.16C375 466.53 348.42 448 320 448ZM494.41 64H346.5L301.24 18.74C289.18 7.02725 272.995 0.530277 256.184 0.65314C239.372 0.776003 223.284 7.50883 211.397 19.3966C199.509 31.2844 192.776 47.3723 192.653 64.1837C192.53 80.9951 199.027 97.1797 210.74 109.24L255.74 154.24L256.02 154.52V302.42C256.02 318.05 274.92 325.88 286.02 314.82L506.82 94C517.88 82.9 510.05 64 494.41 64Z" fill="white" fill-opacity="0.75"/>
</g>
<defs>
<clipPath id="clip0">
<rect width="512" height="512" fill="white"/>
</clipPath>
</defs>
</svg>
