<svg width="576" height="512" viewBox="0 0 576 512" fill="none" xmlns="http://www.w3.org/2000/svg">
<g clip-path="url(#clip0)">
<path d="M74.8 424C71.5301 426.895 68.8874 430.429 67.0348 434.384C65.1821 438.339 64.1587 442.632 64.0276 446.997C63.8964 451.363 64.6603 455.709 66.2722 459.768C67.884 463.827 70.3098 467.514 73.4 470.6L105.4 502.6C108.486 505.69 112.173 508.116 116.232 509.728C120.291 511.34 124.637 512.104 129.003 511.972C133.368 511.841 137.661 510.818 141.616 508.965C145.571 507.113 149.105 504.47 152 501.2L269.5 368.5L212.9 301.7L74.8 424ZM546.5 94.82L452.7 176C451.2 177.4 446.8 173 448.1 171.4L526.9 74.5C539.3 59.2 516.5 36.7 501.4 49L404.5 127.8C402.8 129.2 398.5 124.7 399.8 123.2L481 29.42C493.8 14.72 472.3 -8.58 456.2 3.22C452.3 6.02 379.3 57.72 357.5 79.42C324.2 112.72 320 151.52 341.4 187.82C311 214.72 321.8 205.22 293 230.72L347 280.82C373.5 250.82 361.4 264.62 388 234.52C423 255.22 462.3 252.62 496.5 218.32C518.2 196.62 569.9 123.72 572.7 119.72C584.5 103.52 561.2 82.12 546.5 94.82Z" fill="white" fill-opacity="0.25"/>
<path d="M501.7 424.42C504.853 427.351 507.381 430.888 509.135 434.82C510.888 438.751 511.831 442.996 511.905 447.3C511.98 451.604 511.186 455.879 509.569 459.869C507.953 463.858 505.549 467.481 502.5 470.52L470.5 502.52C467.463 505.548 463.85 507.937 459.874 509.546C455.898 511.154 451.64 511.949 447.352 511.884C443.064 511.819 438.832 510.894 434.907 509.166C430.982 507.437 427.443 504.939 424.5 501.82C405.4 479.22 223.9 265.32 216 256C56 256 0 165.92 0 32.12C0 4.22 33.3 -10.38 53.8 8.62L501.7 424.42Z" fill="white" fill-opacity="0.75"/>
</g>
<defs>
<clipPath id="clip0">
<rect width="576" height="512" fill="white"/>
</clipPath>
</defs>
</svg>
