<svg width="512" height="512" viewBox="0 0 512 512" fill="none" xmlns="http://www.w3.org/2000/svg">
<g clip-path="url(#clip0)">
<path d="M512 277.9C511.84 308.25 485.84 336 452.45 336H350.72C358 364.34 384 388.13 384 430.55C384 504 336 512 312 512C291.82 512 282.52 472.71 278.07 454.21C272.86 432.54 267.48 410.14 252.68 395.3C220.21 362.78 203.17 321.3 163.56 282.19C162.433 281.075 161.539 279.748 160.928 278.286C160.317 276.824 160.001 275.255 160 273.67V59.9C159.999 56.7552 161.234 53.7358 163.437 51.4916C165.64 49.2473 168.636 47.9577 171.78 47.9C187.61 47.61 208.48 38.82 224.44 31.73C256.19 17.6 295.71 0 344 0H346.85C389.63 0 440.21 0.41 460.62 29.74C469.01 41.79 471.07 56.74 466.77 74.37C483.08 91.37 491.83 123.23 483.15 149.13C500.7 172.56 502.3 205.26 492.46 228.59L492.57 228.71C504.45 240.65 512.08 260 512 277.9Z" fill="white" fill-opacity="0.5"/>
<path d="M104 32H24C17.6348 32 11.5303 34.5286 7.02944 39.0294C2.52856 43.5303 0 49.6348 0 56L0 296C0 302.365 2.52856 308.47 7.02944 312.971C11.5303 317.471 17.6348 320 24 320H104C110.365 320 116.47 317.471 120.971 312.971C125.471 308.47 128 302.365 128 296V56C128 49.6348 125.471 43.5303 120.971 39.0294C116.47 34.5286 110.365 32 104 32V32ZM64 280C59.2532 280 54.6131 278.592 50.6663 275.955C46.7195 273.318 43.6434 269.57 41.8269 265.184C40.0104 260.799 39.5351 255.973 40.4612 251.318C41.3872 246.662 43.673 242.386 47.0294 239.029C50.3859 235.673 54.6623 233.387 59.3178 232.461C63.9734 231.535 68.799 232.01 73.1844 233.827C77.5698 235.643 81.3181 238.72 83.9553 242.666C86.5924 246.613 88 251.253 88 256C88 262.365 85.4714 268.47 80.9706 272.971C76.4697 277.471 70.3652 280 64 280Z" fill="white" fill-opacity="0.75"/>
</g>
<defs>
<clipPath id="clip0">
<rect width="512" height="512" fill="white"/>
</clipPath>
</defs>
</svg>
