<svg width="448" height="512" viewBox="0 0 448 512" fill="none" xmlns="http://www.w3.org/2000/svg">
<path d="M96 448C76.8 448 64 435.2 64 416C64 396.8 80 384 96 384H415.33C413.4 400.24 413.57 432.38 415.86 448H96Z" fill="white" fill-opacity="0.25"/>
<path d="M96 384H424C430.365 384 436.47 381.471 440.971 376.971C445.471 372.47 448 366.365 448 360V32C448 23.5131 444.629 15.3737 438.627 9.37258C432.626 3.37142 424.487 0 416 0L96 0C70.5392 0 46.1212 10.1143 28.1177 28.1177C10.1143 46.1212 0 70.5392 0 96L0 416C0 441.461 10.1143 465.879 28.1177 483.882C46.1212 501.886 70.5392 512 96 512H424C430.365 512 436.47 509.471 440.971 504.971C445.471 500.47 448 494.365 448 488V472C448 465.635 445.471 459.53 440.971 455.029C436.47 450.529 430.365 448 424 448H96C76.8 448 64 435.2 64 416C64 396.8 80 384 96 384ZM128 134C128 132.409 128.632 130.883 129.757 129.757C130.883 128.632 132.409 128 134 128H346C347.591 128 349.117 128.632 350.243 129.757C351.368 130.883 352 132.409 352 134V154C352 155.591 351.368 157.117 350.243 158.243C349.117 159.368 347.591 160 346 160H134C132.409 160 130.883 159.368 129.757 158.243C128.632 157.117 128 155.591 128 154V134ZM128 198C128 196.409 128.632 194.883 129.757 193.757C130.883 192.632 132.409 192 134 192H346C347.591 192 349.117 192.632 350.243 193.757C351.368 194.883 352 196.409 352 198V218C352 219.591 351.368 221.117 350.243 222.243C349.117 223.368 347.591 224 346 224H134C132.409 224 130.883 223.368 129.757 222.243C128.632 221.117 128 219.591 128 218V198Z" fill="white" fill-opacity="0.75"/>
</svg>
