<svg width="576" height="512" viewBox="0 0 576 512" fill="none" xmlns="http://www.w3.org/2000/svg">
<g clip-path="url(#clip0)">
<path d="M64.11 311.38V496C64.1232 500.239 65.8131 504.301 68.8109 507.299C71.8086 510.297 75.8706 511.987 80.11 512H496.11C500.349 511.987 504.411 510.297 507.409 507.299C510.407 504.301 512.097 500.239 512.11 496V311.38C505.41 305.88 467.41 273.07 288.11 114.98C108 273.88 70.51 306.07 64.11 311.38V311.38ZM378.21 285.07C384.662 290.427 389.932 297.066 393.687 304.565C397.441 312.064 399.598 320.261 400.021 328.637C400.444 337.013 399.124 345.386 396.144 353.225C393.164 361.064 388.59 368.2 382.71 374.18L298 459.77C296.704 461.077 295.162 462.115 293.463 462.823C291.764 463.531 289.941 463.896 288.1 463.896C286.259 463.896 284.437 463.531 282.737 462.823C281.038 462.115 279.496 461.077 278.2 459.77L193.5 374.18C187.617 368.209 183.035 361.083 180.044 353.252C177.052 345.421 175.717 337.056 176.121 328.683C176.525 320.31 178.66 312.111 182.391 304.605C186.122 297.099 191.369 290.447 197.8 285.07C221.8 265.07 257.5 268.68 279.4 290.88L288 299.57L296.6 290.88C318.61 268.68 354.31 265.07 378.21 285.07V285.07Z" fill="white" fill-opacity="0.25"/>
<path d="M378.21 285.07C354.31 265.07 318.61 268.68 296.61 290.88L288.01 299.57L279.41 290.88C257.51 268.68 221.81 265.07 197.81 285.07C191.379 290.447 186.132 297.099 182.401 304.605C178.67 312.111 176.535 320.31 176.131 328.683C175.727 337.056 177.062 345.421 180.054 353.252C183.045 361.083 187.627 368.209 193.51 374.18L278.21 459.77C279.506 461.077 281.048 462.115 282.747 462.823C284.446 463.531 286.269 463.896 288.11 463.896C289.951 463.896 291.774 463.531 293.473 462.823C295.172 462.115 296.714 461.077 298.01 459.77L382.71 374.18C388.59 368.2 393.164 361.064 396.144 353.225C399.124 345.386 400.444 337.013 400.021 328.637C399.598 320.261 397.441 312.064 393.687 304.565C389.932 297.066 384.662 290.427 378.21 285.07V285.07ZM570.81 236.27L512.11 184.48V48C512.11 43.7565 510.424 39.6869 507.424 36.6863C504.423 33.6857 500.353 32 496.11 32H432.11C427.867 32 423.797 33.6857 420.796 36.6863C417.796 39.6869 416.11 43.7565 416.11 48V99.7L314.81 10.27C307.466 3.66429 297.938 0.00949097 288.06 0.00949097C278.182 0.00949097 268.654 3.66429 261.31 10.27L5.31 236.27C3.74544 237.675 2.47319 239.375 1.56602 241.272C0.658851 243.169 0.134549 245.226 0.0230984 247.326C-0.0883519 249.426 0.215236 251.527 0.916501 253.51C1.61777 255.492 2.70295 257.317 4.11 258.88L25.51 282.68C26.9149 284.243 28.614 285.514 30.5103 286.42C32.4065 287.327 34.4627 287.85 36.5614 287.962C38.6601 288.073 40.7602 287.77 42.7418 287.07C44.7233 286.369 46.5475 285.286 48.11 283.88L277.51 81.68C280.447 79.117 284.212 77.7047 288.11 77.7047C292.008 77.7047 295.773 79.117 298.71 81.68L528 284C529.563 285.405 531.388 286.488 533.37 287.188C535.352 287.887 537.452 288.189 539.551 288.077C541.649 287.965 543.705 287.44 545.601 286.533C547.497 285.626 549.196 284.354 550.6 282.79L572 259C574.853 255.826 576.329 251.65 576.106 247.389C575.883 243.127 573.978 239.129 570.81 236.27V236.27Z" fill="white" fill-opacity="0.75"/>
</g>
<defs>
<clipPath id="clip0">
<rect width="576" height="512" fill="white"/>
</clipPath>
</defs>
</svg>
