<svg width="640" height="512" viewBox="0 0 640 512" fill="none" xmlns="http://www.w3.org/2000/svg">
<g clip-path="url(#clip0)">
<path d="M433.63 189.3L258.7 14.37C249.498 5.16929 237.018 0.000488281 224.005 0.000488281C210.992 0.000488281 198.512 5.16929 189.31 14.37L14.37 189.3C5.16929 198.502 0.000488281 210.982 0.000488281 223.995C0.000488281 237.008 5.16929 249.488 14.37 258.69L189.3 433.63C198.502 442.831 210.982 448 223.995 448C237.008 448 249.488 442.831 258.69 433.63L433.63 258.7C442.831 249.496 448 237.015 448 224C448 210.986 442.831 198.504 433.63 189.3V189.3ZM96 248C91.2533 248 86.6131 246.592 82.6663 243.955C78.7196 241.318 75.6434 237.57 73.8269 233.184C72.0104 228.799 71.5351 223.973 72.4612 219.318C73.3872 214.662 75.673 210.386 79.0295 207.029C82.3859 203.673 86.6623 201.387 91.3179 200.461C95.9734 199.535 100.799 200.01 105.184 201.827C109.57 203.643 113.318 206.72 115.955 210.666C118.592 214.613 120 219.253 120 224C120 230.365 117.471 236.47 112.971 240.971C108.47 245.471 102.365 248 96 248V248ZM224 376C219.253 376 214.613 374.592 210.666 371.955C206.72 369.318 203.643 365.57 201.827 361.184C200.01 356.799 199.535 351.973 200.461 347.318C201.387 342.662 203.673 338.386 207.029 335.029C210.386 331.673 214.662 329.387 219.318 328.461C223.973 327.535 228.799 328.01 233.184 329.827C237.57 331.643 241.318 334.72 243.955 338.666C246.592 342.613 248 347.253 248 352C248 358.365 245.471 364.47 240.971 368.971C236.47 373.471 230.365 376 224 376V376ZM224 248C219.253 248 214.613 246.592 210.666 243.955C206.72 241.318 203.643 237.57 201.827 233.184C200.01 228.799 199.535 223.973 200.461 219.318C201.387 214.662 203.673 210.386 207.029 207.029C210.386 203.673 214.662 201.387 219.318 200.461C223.973 199.535 228.799 200.01 233.184 201.827C237.57 203.643 241.318 206.72 243.955 210.666C246.592 214.613 248 219.253 248 224C248 230.365 245.471 236.47 240.971 240.971C236.47 245.471 230.365 248 224 248V248ZM224 120C219.253 120 214.613 118.592 210.666 115.955C206.72 113.318 203.643 109.57 201.827 105.184C200.01 100.799 199.535 95.9734 200.461 91.3179C201.387 86.6623 203.673 82.3859 207.029 79.0295C210.386 75.673 214.662 73.3872 219.318 72.4612C223.973 71.5351 228.799 72.0104 233.184 73.8269C237.57 75.6434 241.318 78.7196 243.955 82.6663C246.592 86.6131 248 91.2533 248 96C248 102.365 245.471 108.47 240.971 112.971C236.47 117.471 230.365 120 224 120V120ZM352 248C347.253 248 342.613 246.592 338.666 243.955C334.72 241.318 331.643 237.57 329.827 233.184C328.01 228.799 327.535 223.973 328.461 219.318C329.387 214.662 331.673 210.386 335.029 207.029C338.386 203.673 342.662 201.387 347.318 200.461C351.973 199.535 356.799 200.01 361.184 201.827C365.57 203.643 369.318 206.72 371.955 210.666C374.592 214.613 376 219.253 376 224C376 230.365 373.471 236.47 368.971 240.971C364.47 245.471 358.365 248 352 248V248Z" fill="white" fill-opacity="0.25"/>
<path d="M592 192H473.26C479.679 206.882 481.491 223.346 478.46 239.268C475.43 255.189 467.697 269.837 456.26 281.32L320 417.58V464C320 476.73 325.057 488.939 334.059 497.941C343.061 506.943 355.27 512 368 512H592C604.73 512 616.939 506.943 625.941 497.941C634.943 488.939 640 476.73 640 464V240C640 227.27 634.943 215.061 625.941 206.059C616.939 197.057 604.73 192 592 192ZM480 376C475.253 376 470.613 374.592 466.666 371.955C462.72 369.318 459.643 365.57 457.827 361.184C456.01 356.799 455.535 351.973 456.461 347.318C457.387 342.662 459.673 338.386 463.029 335.029C466.386 331.673 470.662 329.387 475.318 328.461C479.973 327.535 484.799 328.01 489.184 329.827C493.57 331.643 497.318 334.72 499.955 338.666C502.592 342.613 504 347.253 504 352C504 358.365 501.471 364.47 496.971 368.971C492.47 373.471 486.365 376 480 376ZM96 200C91.2533 200 86.6131 201.408 82.6663 204.045C78.7195 206.682 75.6434 210.43 73.8269 214.816C72.0104 219.201 71.5351 224.027 72.4612 228.682C73.3872 233.338 75.673 237.614 79.0294 240.971C82.3859 244.327 86.6623 246.613 91.3178 247.539C95.9734 248.465 100.799 247.99 105.184 246.173C109.57 244.357 113.318 241.28 115.955 237.334C118.592 233.387 120 228.747 120 224C120 217.635 117.471 211.53 112.971 207.029C108.47 202.529 102.365 200 96 200ZM352 248C356.747 248 361.387 246.592 365.334 243.955C369.28 241.318 372.357 237.57 374.173 233.184C375.99 228.799 376.465 223.973 375.539 219.318C374.613 214.662 372.327 210.386 368.971 207.029C365.614 203.673 361.338 201.387 356.682 200.461C352.027 199.535 347.201 200.01 342.816 201.827C338.43 203.643 334.682 206.72 332.045 210.666C329.408 214.613 328 219.253 328 224C328 230.365 330.529 236.47 335.029 240.971C339.53 245.471 345.635 248 352 248V248ZM224 328C219.253 328 214.613 329.408 210.666 332.045C206.72 334.682 203.643 338.43 201.827 342.816C200.01 347.201 199.535 352.027 200.461 356.682C201.387 361.338 203.673 365.614 207.029 368.971C210.386 372.327 214.662 374.613 219.318 375.539C223.973 376.465 228.799 375.99 233.184 374.173C237.57 372.357 241.318 369.28 243.955 365.334C246.592 361.387 248 356.747 248 352C248 345.635 245.471 339.53 240.971 335.029C236.47 330.529 230.365 328 224 328V328ZM224 72C219.253 72 214.613 73.4076 210.666 76.0447C206.72 78.6819 203.643 82.4302 201.827 86.8156C200.01 91.201 199.535 96.0266 200.461 100.682C201.387 105.338 203.673 109.614 207.029 112.971C210.386 116.327 214.662 118.613 219.318 119.539C223.973 120.465 228.799 119.99 233.184 118.173C237.57 116.357 241.318 113.28 243.955 109.334C246.592 105.387 248 100.747 248 96C248 89.6348 245.471 83.5303 240.971 79.0294C236.47 74.5286 230.365 72 224 72V72ZM224 200C219.253 200 214.613 201.408 210.666 204.045C206.72 206.682 203.643 210.43 201.827 214.816C200.01 219.201 199.535 224.027 200.461 228.682C201.387 233.338 203.673 237.614 207.029 240.971C210.386 244.327 214.662 246.613 219.318 247.539C223.973 248.465 228.799 247.99 233.184 246.173C237.57 244.357 241.318 241.28 243.955 237.334C246.592 233.387 248 228.747 248 224C248 217.635 245.471 211.53 240.971 207.029C236.47 202.529 230.365 200 224 200V200Z" fill="white" fill-opacity="0.75"/>
</g>
<defs>
<clipPath id="clip0">
<rect width="640" height="512" fill="white"/>
</clipPath>
</defs>
</svg>
