<svg width="576" height="512" viewBox="0 0 576 512" fill="none" xmlns="http://www.w3.org/2000/svg">
<g clip-path="url(#clip0)">
<path d="M576 154.31C576 326.69 465.49 467.48 308.47 478.88C301.67 479.605 294.838 479.979 288 480V479.45H287.75C254.241 479.466 221.313 470.695 192.25 454.014C163.188 437.332 139.008 413.323 122.12 384.38L122.89 383.53C152.47 351.3 185.17 325.69 220.07 307.41C263.063 284.858 310.921 273.168 359.47 273.36C365.931 273.23 372.083 270.572 376.606 265.957C381.13 261.342 383.663 255.137 383.663 248.675C383.663 242.213 381.13 236.008 376.606 231.393C372.083 226.778 365.931 224.12 359.47 223.99C302.688 223.776 246.727 237.548 196.53 264.09C162.76 281.9 130.97 305.57 101.76 334.58C97.9201 319.256 95.9855 303.517 96 287.72C96 181.83 181.86 96 287.77 96H368C431.4 96 486.91 62.41 517.91 8.51001C524.61 -3.28999 540.62 -2.78999 546.22 9.71001C565.2 52.12 576 104.11 576 154.31Z" fill="white" fill-opacity="0.25"/>
<path d="M24.5 512C21.2345 511.994 18.0036 511.331 15 510.05C9.01238 507.468 4.28705 502.625 1.85238 496.575C-0.582286 490.526 -0.529236 483.76 1.99999 477.75C3.07999 475.15 29.24 413.42 85.81 351.32C119.28 314.57 156.56 285.23 196.62 264.1C246.796 237.569 302.732 223.797 359.49 224C365.951 224.13 372.103 226.788 376.626 231.403C381.15 236.018 383.683 242.223 383.683 248.685C383.683 255.147 381.15 261.352 376.626 265.967C372.103 270.582 365.951 273.24 359.49 273.37C310.941 273.178 263.083 284.868 220.09 307.42C185.19 325.7 152.49 351.31 122.91 383.54C71.66 439.39 47.33 496.37 47.09 496.94C45.2243 501.395 42.0857 505.2 38.0674 507.879C34.049 510.557 29.3295 511.991 24.5 512V512Z" fill="white" fill-opacity="0.75"/>
</g>
<defs>
<clipPath id="clip0">
<rect width="576" height="512" fill="white"/>
</clipPath>
</defs>
</svg>
