<svg width="640" height="512" viewBox="0 0 640 512" fill="none" xmlns="http://www.w3.org/2000/svg">
<path d="M176 224C190.916 223.994 205.682 226.98 219.423 232.782C233.165 238.585 245.602 247.085 256 257.78V48C256.062 30.6341 261.828 13.7695 272.41 0L48 0C35.2696 0 23.0606 5.05713 14.0589 14.0589C5.05713 23.0606 0 35.2696 0 48L0 464C0 476.73 5.05713 488.939 14.0589 497.941C23.0606 506.943 35.2696 512 48 512H272.41C261.828 498.23 256.062 481.366 256 464V414.22C243.091 427.449 227.109 437.277 209.48 442.829C191.85 448.38 173.12 449.482 154.961 446.036C136.801 442.591 119.777 434.704 105.406 423.081C91.0353 411.457 79.7645 396.457 72.5989 379.42C65.4334 362.382 62.5959 343.835 64.3395 325.434C66.0831 307.034 72.3536 289.35 82.5918 273.962C92.8299 258.573 106.717 245.957 123.016 237.24C139.314 228.522 157.517 223.974 176 224V224ZM176 64C185.494 64 194.774 66.8152 202.667 72.0895C210.561 77.3638 216.713 84.8603 220.346 93.6312C223.979 102.402 224.93 112.053 223.078 121.364C221.226 130.675 216.654 139.228 209.941 145.941C203.228 152.654 194.675 157.226 185.364 159.078C176.053 160.93 166.402 159.979 157.631 156.346C148.86 152.713 141.364 146.561 136.089 138.667C130.815 130.774 128 121.494 128 112C128 99.2696 133.057 87.0606 142.059 78.0589C151.061 69.0571 163.27 64 176 64V64ZM592 0H336C323.27 0 311.061 5.05713 302.059 14.0589C293.057 23.0606 288 35.2696 288 48V464C288 476.73 293.057 488.939 302.059 497.941C311.061 506.943 323.27 512 336 512H592C604.73 512 616.939 506.943 625.941 497.941C634.943 488.939 640 476.73 640 464V48C640 35.2696 634.943 23.0606 625.941 14.0589C616.939 5.05713 604.73 0 592 0V0ZM464 64C473.494 64 482.774 66.8152 490.667 72.0895C498.561 77.3638 504.713 84.8603 508.346 93.6312C511.979 102.402 512.93 112.053 511.078 121.364C509.226 130.675 504.654 139.228 497.941 145.941C491.228 152.654 482.675 157.226 473.364 159.078C464.053 160.93 454.402 159.979 445.631 156.346C436.86 152.713 429.364 146.561 424.089 138.667C418.815 130.774 416 121.494 416 112C416 99.2696 421.057 87.0606 430.059 78.0589C439.061 69.0571 451.27 64 464 64V64ZM464 448C441.848 448 420.194 441.431 401.776 429.125C383.358 416.818 369.002 399.326 360.525 378.861C352.048 358.395 349.83 335.876 354.152 314.15C358.474 292.424 369.141 272.468 384.804 256.804C400.468 241.141 420.424 230.474 442.15 226.152C463.876 221.831 486.395 224.048 506.861 232.525C527.326 241.003 544.818 255.358 557.125 273.776C569.431 292.194 576 313.848 576 336C576 365.704 564.2 394.192 543.196 415.196C522.192 436.2 493.704 448 464 448V448Z" fill="white" fill-opacity="0.75"/>
<path d="M64 336C63.9788 358.259 70.5972 380.019 83.0089 398.496C95.4205 416.974 113.061 431.329 133.675 439.727C154.289 448.125 176.94 450.184 198.73 445.64C220.52 441.097 240.46 430.157 256 414.22V257.78C240.46 241.843 220.52 230.903 198.73 226.36C176.94 221.816 154.289 223.875 133.675 232.273C113.061 240.671 95.4205 255.027 83.0089 273.504C70.5972 291.981 63.9788 313.741 64 336V336ZM240 336C240 348.658 236.246 361.032 229.214 371.557C222.182 382.081 212.186 390.284 200.492 395.128C188.797 399.972 175.929 401.24 163.514 398.77C151.099 396.301 139.696 390.205 130.745 381.255C121.795 372.304 115.699 360.901 113.23 348.486C110.76 336.071 112.028 323.203 116.872 311.508C121.716 299.814 129.919 289.818 140.444 282.786C150.968 275.754 163.342 272 176 272C192.974 272 209.252 278.743 221.255 290.745C233.257 302.748 240 319.026 240 336ZM464 224C441.848 224 420.194 230.569 401.776 242.875C383.358 255.182 369.002 272.674 360.525 293.139C352.048 313.605 349.83 336.124 354.152 357.85C358.474 379.576 369.141 399.533 384.804 415.196C400.468 430.859 420.424 441.526 442.15 445.848C463.876 450.17 486.395 447.952 506.861 439.475C527.326 430.998 544.818 416.642 557.125 398.224C569.431 379.806 576 358.152 576 336C576 306.296 564.2 277.808 543.196 256.804C522.192 235.8 493.704 224 464 224V224ZM464 400C451.342 400 438.968 396.246 428.444 389.214C417.919 382.182 409.716 372.186 404.872 360.492C400.028 348.797 398.76 335.929 401.23 323.514C403.699 311.099 409.795 299.696 418.745 290.745C427.696 281.795 439.099 275.699 451.514 273.23C463.929 270.76 476.797 272.028 488.492 276.872C500.186 281.716 510.182 289.919 517.214 300.444C524.246 310.968 528 323.342 528 336C528 352.974 521.257 369.253 509.255 381.255C497.252 393.257 480.974 400 464 400ZM464 160C473.494 160 482.774 157.185 490.667 151.911C498.561 146.636 504.713 139.14 508.346 130.369C511.979 121.598 512.93 111.947 511.078 102.636C509.226 93.3246 504.654 84.7718 497.941 78.0589C491.228 71.346 482.675 66.7744 473.364 64.9223C464.053 63.0702 454.402 64.0208 445.631 67.6538C436.86 71.2868 429.364 77.4391 424.089 85.3326C418.815 93.2262 416 102.507 416 112C416 124.73 421.057 136.939 430.059 145.941C439.061 154.943 451.27 160 464 160V160ZM176 160C185.493 160 194.774 157.185 202.667 151.911C210.561 146.636 216.713 139.14 220.346 130.369C223.979 121.598 224.93 111.947 223.078 102.636C221.226 93.3246 216.654 84.7718 209.941 78.0589C203.228 71.346 194.675 66.7744 185.364 64.9223C176.053 63.0702 166.402 64.0208 157.631 67.6538C148.86 71.2868 141.364 77.4391 136.089 85.3326C130.815 93.2262 128 102.507 128 112C128 124.73 133.057 136.939 142.059 145.941C151.061 154.943 163.27 160 176 160V160Z" fill="white" fill-opacity="0.25"/>
</svg>
