<svg width="512" height="512" viewBox="0 0 512 512" fill="none" xmlns="http://www.w3.org/2000/svg">
<g clip-path="url(#clip0)">
<path d="M163.56 229.81C203.17 190.66 220.21 149.22 252.68 116.7C267.48 101.86 272.86 79.46 278.07 57.79C282.52 39.29 291.82 0 312 0C336 0 384 8 384 81.45C384 123.87 358 147.66 350.72 176H452.45C485.84 176 511.84 203.75 512 234.1C512.08 252.04 504.45 271.35 492.56 283.29L492.45 283.41C502.29 306.74 500.69 339.41 483.14 362.87C491.82 388.77 483.07 420.58 466.76 437.63C471.06 455.23 469 470.21 460.61 482.26C440.2 511.59 389.62 512 346.84 512H344C295.72 512 256.2 494.4 224.44 480.27C208.44 473.18 187.62 464.39 171.79 464.1C168.646 464.042 165.65 462.753 163.447 460.508C161.244 458.264 160.009 455.245 160.01 452.1V238.33C160.01 236.746 160.324 235.177 160.933 233.715C161.542 232.253 162.435 230.926 163.56 229.81V229.81Z" fill="white" fill-opacity="0.5"/>
<path d="M104 224H24C17.6348 224 11.5303 226.529 7.02944 231.029C2.52856 235.53 0 241.635 0 248L0 488C0 494.365 2.52856 500.47 7.02944 504.971C11.5303 509.471 17.6348 512 24 512H104C110.365 512 116.47 509.471 120.971 504.971C125.471 500.47 128 494.365 128 488V248C128 241.635 125.471 235.53 120.971 231.029C116.47 226.529 110.365 224 104 224ZM64 472C59.2532 472 54.6131 470.592 50.6663 467.955C46.7195 465.318 43.6434 461.57 41.8269 457.184C40.0104 452.799 39.5351 447.973 40.4612 443.318C41.3872 438.662 43.673 434.386 47.0294 431.029C50.3859 427.673 54.6623 425.387 59.3178 424.461C63.9734 423.535 68.799 424.01 73.1844 425.827C77.5698 427.643 81.3181 430.72 83.9553 434.666C86.5924 438.613 88 443.253 88 448C88 454.365 85.4714 460.47 80.9706 464.971C76.4697 469.471 70.3652 472 64 472V472Z" fill="white" fill-opacity="0.75"/>
</g>
<defs>
<clipPath id="clip0">
<rect width="512" height="512" fill="white"/>
</clipPath>
</defs>
</svg>
